<svg xmlns="http://www.w3.org/2000/svg" enable-background="new 0 0 128 128" viewBox="0 0 128 128" id="kaaba">
  <g id="Kaaba">
    <g>
      <rect width="120" height="8" x="4" y="109" fill="#eceafd"></rect>
      <path fill="#2c3e50" d="M64,11v98H9V22.669c0-0.967,0.691-1.795,1.642-1.968L64,11z"></path>
      <path fill="#1a242d" d="M41,77.2V109H18V79.612c0-1.007,0.749-1.857,1.748-1.984l19-2.412C39.943,75.064,41,75.995,41,77.2z"></path>
      <path fill="#3f5c6c" d="M119,22.669V109H64V11l53.358,9.701C118.309,20.874,119,21.703,119,22.669z"></path>
      <path fill="#2c3e50" d="M110 97.84c-.006 0-.013 0-.019 0l-9-.17c-.553-.011-.991-.467-.981-1.019.011-.551.477-.982 1.019-.981l9 .17c.553.011.991.467.981 1.019C110.989 97.404 110.544 97.84 110 97.84zM101.001 86.35c-.013 0-.025 0-.038 0l-9-.33c-.552-.021-.982-.484-.962-1.036.021-.552.499-.995 1.036-.963l9 .33c.552.021.982.484.962 1.036C101.979 85.926 101.536 86.35 101.001 86.35zM92 97.51c-.006 0-.012 0-.018 0l-9-.16C82.43 97.34 81.99 96.885 82 96.333c.01-.553.425-.985 1.018-.982l9 .16c.553.01.992.465.982 1.018C92.99 97.074 92.544 97.51 92 97.51zM83.001 85.69c-.013 0-.025 0-.038 0l-9-.33c-.552-.021-.982-.484-.962-1.036.02-.552.505-.988 1.036-.963l9 .33c.552.021.982.484.962 1.036C83.979 85.266 83.536 85.69 83.001 85.69z"></path>
      <polygon fill="#e57e25" points="64 21 64 34 9 41 9 30"></polygon>
      <polygon fill="#f0c419" points="119 30 119 41 64 34 64 21"></polygon>
      <polygon fill="#e57e25" points="9 53 22 50.87 22 60.35 9 62"></polygon>
      <polygon fill="#e57e25" points="33 49.07 46 46.95 46 57.29 33 58.95"></polygon>
      <polygon fill="#f0c419" points="119 53 106 50.87 106 60.35 119 62"></polygon>
      <polygon fill="#f0c419" points="95 49.07 82 46.95 82 57.29 95 58.95"></polygon>
      <polygon fill="#e57e25" points="64 44 64 55 57 55.89 57 45.15"></polygon>
      <polygon fill="#f0c419" points="71 45.15 71 55.89 64 55 64 44"></polygon>
    </g>
  </g>
</svg>
